<mxfile host="app.diagrams.net" modified="2024-05-19T09:43:30.410Z" agent="Mozilla/5.0 (X11; Linux x86_64) AppleWebKit/537.36 (KHTML, like Gecko) Chrome/120.0.0.0 YaBrowser/24.1.0.0 Safari/537.36" etag="fgR59ywhhG4UcoT-GVBb" version="24.4.4" type="device">
  <diagram name="Страница — 1" id="4Mfy0hciLZ89WPDFsnkD">
    <mxGraphModel dx="2705" dy="2195" grid="1" gridSize="10" guides="1" tooltips="1" connect="1" arrows="1" fold="1" page="1" pageScale="1" pageWidth="827" pageHeight="1169" math="0" shadow="0">
      <root>
        <mxCell id="0" />
        <mxCell id="1" parent="0" />
        <mxCell id="FIp25z3p22-8h9jB1WQo-1" value="&amp;lt;&amp;lt;Entity&amp;gt;&amp;gt;&lt;div&gt;Dataset&lt;/div&gt;" style="swimlane;fontStyle=1;align=center;verticalAlign=top;childLayout=stackLayout;horizontal=1;startSize=40;horizontalStack=0;resizeParent=1;resizeParentMax=0;resizeLast=0;collapsible=1;marginBottom=0;whiteSpace=wrap;html=1;" parent="1" vertex="1">
          <mxGeometry x="180" y="-40" width="220" height="210" as="geometry" />
        </mxCell>
        <mxCell id="FIp25z3p22-8h9jB1WQo-2" value="&lt;div&gt;+ id: int&lt;br&gt;&lt;/div&gt;+ name: string&lt;div&gt;+ len: int&lt;/div&gt;&lt;div&gt;+ path: string&lt;/div&gt;&lt;div&gt;+ images_path: string[]&lt;/div&gt;&lt;div&gt;+ images_info: string[]&lt;/div&gt;" style="text;strokeColor=none;fillColor=none;align=left;verticalAlign=top;spacingLeft=4;spacingRight=4;overflow=hidden;rotatable=0;points=[[0,0.5],[1,0.5]];portConstraint=eastwest;whiteSpace=wrap;html=1;" parent="FIp25z3p22-8h9jB1WQo-1" vertex="1">
          <mxGeometry y="40" width="220" height="90" as="geometry" />
        </mxCell>
        <mxCell id="FIp25z3p22-8h9jB1WQo-3" value="" style="line;strokeWidth=1;fillColor=none;align=left;verticalAlign=middle;spacingTop=-1;spacingLeft=3;spacingRight=3;rotatable=0;labelPosition=right;points=[];portConstraint=eastwest;strokeColor=inherit;" parent="FIp25z3p22-8h9jB1WQo-1" vertex="1">
          <mxGeometry y="130" width="220" height="8" as="geometry" />
        </mxCell>
        <mxCell id="FIp25z3p22-8h9jB1WQo-4" value="+ init(rootDir: string): void&lt;div&gt;+ getItem(idx: int): string&lt;/div&gt;&lt;div&gt;+ LoadDataset(id: int): string&lt;/div&gt;&lt;div&gt;+ saveChanges(ds: Dataset): Dataset&lt;/div&gt;" style="text;strokeColor=none;fillColor=none;align=left;verticalAlign=top;spacingLeft=4;spacingRight=4;overflow=hidden;rotatable=0;points=[[0,0.5],[1,0.5]];portConstraint=eastwest;whiteSpace=wrap;html=1;" parent="FIp25z3p22-8h9jB1WQo-1" vertex="1">
          <mxGeometry y="138" width="220" height="72" as="geometry" />
        </mxCell>
        <mxCell id="FIp25z3p22-8h9jB1WQo-5" value="&amp;lt;&amp;lt;Entity&amp;gt;&amp;gt;&lt;div&gt;Preprocessing&lt;/div&gt;" style="swimlane;fontStyle=1;align=center;verticalAlign=top;childLayout=stackLayout;horizontal=1;startSize=40;horizontalStack=0;resizeParent=1;resizeParentMax=0;resizeLast=0;collapsible=1;marginBottom=0;whiteSpace=wrap;html=1;" parent="1" vertex="1">
          <mxGeometry x="-100" y="510" width="280" height="190" as="geometry" />
        </mxCell>
        <mxCell id="FIp25z3p22-8h9jB1WQo-6" value="&lt;div&gt;+ id: int&lt;/div&gt;+ dataset: Dataset&lt;div&gt;&lt;br&gt;&lt;/div&gt;" style="text;strokeColor=none;fillColor=none;align=left;verticalAlign=top;spacingLeft=4;spacingRight=4;overflow=hidden;rotatable=0;points=[[0,0.5],[1,0.5]];portConstraint=eastwest;whiteSpace=wrap;html=1;" parent="FIp25z3p22-8h9jB1WQo-5" vertex="1">
          <mxGeometry y="40" width="280" height="40" as="geometry" />
        </mxCell>
        <mxCell id="FIp25z3p22-8h9jB1WQo-7" value="" style="line;strokeWidth=1;fillColor=none;align=left;verticalAlign=middle;spacingTop=-1;spacingLeft=3;spacingRight=3;rotatable=0;labelPosition=right;points=[];portConstraint=eastwest;strokeColor=inherit;" parent="FIp25z3p22-8h9jB1WQo-5" vertex="1">
          <mxGeometry y="80" width="280" height="8" as="geometry" />
        </mxCell>
        <mxCell id="FIp25z3p22-8h9jB1WQo-8" value="&lt;div&gt;&lt;div&gt;+ init()&lt;/div&gt;&lt;div&gt;+getDataset()&lt;/div&gt;&lt;span style=&quot;background-color: initial;&quot;&gt;+ dataPreprocessing(dataset: Dataset): Dataset&lt;/span&gt;&lt;/div&gt;&lt;div&gt;+ dataScince(dataset: Dataset): Dataset&lt;/div&gt;&lt;div&gt;+ dataCleaning(dataset: Dataset): Dataset&lt;/div&gt;&lt;div&gt;+ dataAug(dataset:&amp;nbsp;&lt;span style=&quot;background-color: initial;&quot;&gt;Dataset&lt;/span&gt;&lt;span style=&quot;background-color: initial;&quot;&gt;):&amp;nbsp;&lt;/span&gt;&lt;span style=&quot;background-color: initial;&quot;&gt;Dataset&lt;/span&gt;&lt;/div&gt;" style="text;strokeColor=none;fillColor=none;align=left;verticalAlign=top;spacingLeft=4;spacingRight=4;overflow=hidden;rotatable=0;points=[[0,0.5],[1,0.5]];portConstraint=eastwest;whiteSpace=wrap;html=1;" parent="FIp25z3p22-8h9jB1WQo-5" vertex="1">
          <mxGeometry y="88" width="280" height="102" as="geometry" />
        </mxCell>
        <mxCell id="FIp25z3p22-8h9jB1WQo-13" value="&amp;lt;&amp;lt;Entity&amp;gt;&amp;gt;&lt;div&gt;Selecting&lt;/div&gt;" style="swimlane;fontStyle=1;align=center;verticalAlign=top;childLayout=stackLayout;horizontal=1;startSize=40;horizontalStack=0;resizeParent=1;resizeParentMax=0;resizeLast=0;collapsible=1;marginBottom=0;whiteSpace=wrap;html=1;" parent="1" vertex="1">
          <mxGeometry x="590" y="20" width="250" height="200" as="geometry" />
        </mxCell>
        <mxCell id="FIp25z3p22-8h9jB1WQo-14" value="+ dataset: Dataset&lt;div&gt;+ models: string[]&lt;/div&gt;&lt;div&gt;+ metrics: string[]&lt;/div&gt;" style="text;strokeColor=none;fillColor=none;align=left;verticalAlign=top;spacingLeft=4;spacingRight=4;overflow=hidden;rotatable=0;points=[[0,0.5],[1,0.5]];portConstraint=eastwest;whiteSpace=wrap;html=1;" parent="FIp25z3p22-8h9jB1WQo-13" vertex="1">
          <mxGeometry y="40" width="250" height="50" as="geometry" />
        </mxCell>
        <mxCell id="FIp25z3p22-8h9jB1WQo-15" value="" style="line;strokeWidth=1;fillColor=none;align=left;verticalAlign=middle;spacingTop=-1;spacingLeft=3;spacingRight=3;rotatable=0;labelPosition=right;points=[];portConstraint=eastwest;strokeColor=inherit;" parent="FIp25z3p22-8h9jB1WQo-13" vertex="1">
          <mxGeometry y="90" width="250" height="8" as="geometry" />
        </mxCell>
        <mxCell id="FIp25z3p22-8h9jB1WQo-16" value="&lt;div&gt;+ init()&lt;/div&gt;&lt;div&gt;+getDataset(): Dataset&lt;/div&gt;+ getModels(): Model&lt;div&gt;+ learnModels(dataset: Dataset): Model&lt;/div&gt;&lt;div&gt;+ selectBest(dataset: Dataset): Model&lt;/div&gt;&lt;div&gt;+ saveResults(): Model&lt;/div&gt;" style="text;strokeColor=none;fillColor=none;align=left;verticalAlign=top;spacingLeft=4;spacingRight=4;overflow=hidden;rotatable=0;points=[[0,0.5],[1,0.5]];portConstraint=eastwest;whiteSpace=wrap;html=1;" parent="FIp25z3p22-8h9jB1WQo-13" vertex="1">
          <mxGeometry y="98" width="250" height="102" as="geometry" />
        </mxCell>
        <mxCell id="FIp25z3p22-8h9jB1WQo-25" value="&amp;lt;&amp;lt;Entity&amp;gt;&amp;gt;&lt;div&gt;Training&lt;/div&gt;" style="swimlane;fontStyle=1;align=center;verticalAlign=top;childLayout=stackLayout;horizontal=1;startSize=40;horizontalStack=0;resizeParent=1;resizeParentMax=0;resizeLast=0;collapsible=1;marginBottom=0;whiteSpace=wrap;html=1;" parent="1" vertex="1">
          <mxGeometry x="750" y="310" width="270" height="230" as="geometry" />
        </mxCell>
        <mxCell id="FIp25z3p22-8h9jB1WQo-26" value="&lt;div&gt;+id: int&lt;/div&gt;+ dataset: Dataset&lt;div&gt;+ model: Model[]&lt;/div&gt;&lt;div&gt;+ metrics: string[]&lt;/div&gt;&lt;div&gt;+bestParams: string&lt;/div&gt;&lt;div&gt;+result: string&lt;/div&gt;" style="text;strokeColor=none;fillColor=none;align=left;verticalAlign=top;spacingLeft=4;spacingRight=4;overflow=hidden;rotatable=0;points=[[0,0.5],[1,0.5]];portConstraint=eastwest;whiteSpace=wrap;html=1;" parent="FIp25z3p22-8h9jB1WQo-25" vertex="1">
          <mxGeometry y="40" width="270" height="90" as="geometry" />
        </mxCell>
        <mxCell id="FIp25z3p22-8h9jB1WQo-27" value="" style="line;strokeWidth=1;fillColor=none;align=left;verticalAlign=middle;spacingTop=-1;spacingLeft=3;spacingRight=3;rotatable=0;labelPosition=right;points=[];portConstraint=eastwest;strokeColor=inherit;" parent="FIp25z3p22-8h9jB1WQo-25" vertex="1">
          <mxGeometry y="130" width="270" height="8" as="geometry" />
        </mxCell>
        <mxCell id="FIp25z3p22-8h9jB1WQo-28" value="&lt;div&gt;&lt;div&gt;+ init()&lt;/div&gt;&lt;div&gt;+ getDataset(): Dataset&lt;/div&gt;&lt;div&gt;&lt;span style=&quot;background-color: initial;&quot;&gt;+ get Models(): Model&lt;/span&gt;&lt;/div&gt;&lt;div&gt;&lt;span style=&quot;background-color: initial;&quot;&gt;+ trainModel(dataset: Dataset): Dataset&lt;/span&gt;&lt;br&gt;&lt;/div&gt;&lt;/div&gt;&lt;div&gt;+ saveModel(): string&lt;/div&gt;&lt;div&gt;+ saveState(): string&lt;/div&gt;" style="text;strokeColor=none;fillColor=none;align=left;verticalAlign=top;spacingLeft=4;spacingRight=4;overflow=hidden;rotatable=0;points=[[0,0.5],[1,0.5]];portConstraint=eastwest;whiteSpace=wrap;html=1;" parent="FIp25z3p22-8h9jB1WQo-25" vertex="1">
          <mxGeometry y="138" width="270" height="92" as="geometry" />
        </mxCell>
        <mxCell id="FIp25z3p22-8h9jB1WQo-29" value="&amp;lt;&amp;lt;Entity&amp;gt;&amp;gt;&lt;div&gt;Relise&lt;/div&gt;" style="swimlane;fontStyle=1;align=center;verticalAlign=top;childLayout=stackLayout;horizontal=1;startSize=40;horizontalStack=0;resizeParent=1;resizeParentMax=0;resizeLast=0;collapsible=1;marginBottom=0;whiteSpace=wrap;html=1;" parent="1" vertex="1">
          <mxGeometry x="320" y="590" width="290" height="240" as="geometry" />
        </mxCell>
        <mxCell id="FIp25z3p22-8h9jB1WQo-30" value="&lt;div&gt;+ id: int&lt;br&gt;&lt;/div&gt;+ dataset: Dataset&lt;div&gt;+ model: Model&lt;/div&gt;&lt;div&gt;+ bestParams: string&lt;/div&gt;&lt;div&gt;+ result: string&lt;/div&gt;&lt;div&gt;+ otchet: string&lt;/div&gt;" style="text;strokeColor=none;fillColor=none;align=left;verticalAlign=top;spacingLeft=4;spacingRight=4;overflow=hidden;rotatable=0;points=[[0,0.5],[1,0.5]];portConstraint=eastwest;whiteSpace=wrap;html=1;" parent="FIp25z3p22-8h9jB1WQo-29" vertex="1">
          <mxGeometry y="40" width="290" height="90" as="geometry" />
        </mxCell>
        <mxCell id="FIp25z3p22-8h9jB1WQo-31" value="" style="line;strokeWidth=1;fillColor=none;align=left;verticalAlign=middle;spacingTop=-1;spacingLeft=3;spacingRight=3;rotatable=0;labelPosition=right;points=[];portConstraint=eastwest;strokeColor=inherit;" parent="FIp25z3p22-8h9jB1WQo-29" vertex="1">
          <mxGeometry y="130" width="290" height="8" as="geometry" />
        </mxCell>
        <mxCell id="FIp25z3p22-8h9jB1WQo-32" value="&lt;div&gt;&lt;div&gt;+ init()&lt;/div&gt;&lt;div&gt;+getDataset()&lt;/div&gt;+ get Models()&amp;nbsp;&lt;br&gt;&lt;/div&gt;&lt;div&gt;+ pipeline(dataset: Dataset, model: Model): Dataset&lt;/div&gt;&lt;div&gt;+ Documentation(dataset: Dataset): Dataset&lt;/div&gt;&lt;div&gt;+ buildModel(dataset: Dataset, model: Model)&lt;/div&gt;" style="text;strokeColor=none;fillColor=none;align=left;verticalAlign=top;spacingLeft=4;spacingRight=4;overflow=hidden;rotatable=0;points=[[0,0.5],[1,0.5]];portConstraint=eastwest;whiteSpace=wrap;html=1;" parent="FIp25z3p22-8h9jB1WQo-29" vertex="1">
          <mxGeometry y="138" width="290" height="102" as="geometry" />
        </mxCell>
        <mxCell id="FIp25z3p22-8h9jB1WQo-33" value="&amp;lt;&amp;lt;Entity&amp;gt;&amp;gt;&lt;div&gt;Model&lt;/div&gt;" style="swimlane;fontStyle=1;align=center;verticalAlign=top;childLayout=stackLayout;horizontal=1;startSize=40;horizontalStack=0;resizeParent=1;resizeParentMax=0;resizeLast=0;collapsible=1;marginBottom=0;whiteSpace=wrap;html=1;" parent="1" vertex="1">
          <mxGeometry x="-80" y="150" width="190" height="200" as="geometry" />
        </mxCell>
        <mxCell id="FIp25z3p22-8h9jB1WQo-34" value="&lt;div&gt;+ id: int&lt;br&gt;&lt;/div&gt;+ name: string&lt;div&gt;+ code: string&lt;/div&gt;&lt;div&gt;+ params: int[]&lt;/div&gt;&lt;div&gt;+ data: Dataset&lt;/div&gt;" style="text;strokeColor=none;fillColor=none;align=left;verticalAlign=top;spacingLeft=4;spacingRight=4;overflow=hidden;rotatable=0;points=[[0,0.5],[1,0.5]];portConstraint=eastwest;whiteSpace=wrap;html=1;" parent="FIp25z3p22-8h9jB1WQo-33" vertex="1">
          <mxGeometry y="40" width="190" height="90" as="geometry" />
        </mxCell>
        <mxCell id="FIp25z3p22-8h9jB1WQo-35" value="" style="line;strokeWidth=1;fillColor=none;align=left;verticalAlign=middle;spacingTop=-1;spacingLeft=3;spacingRight=3;rotatable=0;labelPosition=right;points=[];portConstraint=eastwest;strokeColor=inherit;" parent="FIp25z3p22-8h9jB1WQo-33" vertex="1">
          <mxGeometry y="130" width="190" height="8" as="geometry" />
        </mxCell>
        <mxCell id="FIp25z3p22-8h9jB1WQo-36" value="+ trainModel():string[], int[]&lt;div&gt;+ testModel(): string[], int[]&lt;/div&gt;&lt;div&gt;+ saveModel(): Model&lt;/div&gt;&lt;div&gt;+ loadModel(): Model&lt;/div&gt;" style="text;strokeColor=none;fillColor=none;align=left;verticalAlign=top;spacingLeft=4;spacingRight=4;overflow=hidden;rotatable=0;points=[[0,0.5],[1,0.5]];portConstraint=eastwest;whiteSpace=wrap;html=1;" parent="FIp25z3p22-8h9jB1WQo-33" vertex="1">
          <mxGeometry y="138" width="190" height="62" as="geometry" />
        </mxCell>
        <mxCell id="FIp25z3p22-8h9jB1WQo-37" value="" style="endArrow=none;html=1;rounded=0;exitX=0.5;exitY=0;exitDx=0;exitDy=0;entryX=0.528;entryY=0.007;entryDx=0;entryDy=0;entryPerimeter=0;" parent="1" source="ABU70FEKO0Nm89xOWMDc-9" target="FIp25z3p22-8h9jB1WQo-39" edge="1">
          <mxGeometry width="50" height="50" relative="1" as="geometry">
            <mxPoint x="440" y="310" as="sourcePoint" />
            <mxPoint x="740" y="260" as="targetPoint" />
          </mxGeometry>
        </mxCell>
        <mxCell id="FIp25z3p22-8h9jB1WQo-38" value="1" style="text;html=1;align=center;verticalAlign=middle;resizable=0;points=[];autosize=1;strokeColor=none;fillColor=none;" parent="1" vertex="1">
          <mxGeometry x="414" y="288" width="30" height="30" as="geometry" />
        </mxCell>
        <mxCell id="FIp25z3p22-8h9jB1WQo-39" value="1..*" style="text;html=1;align=center;verticalAlign=middle;resizable=0;points=[];autosize=1;strokeColor=none;fillColor=none;" parent="1" vertex="1">
          <mxGeometry x="260" y="170" width="40" height="30" as="geometry" />
        </mxCell>
        <mxCell id="FIp25z3p22-8h9jB1WQo-40" value="" style="endArrow=none;html=1;rounded=0;exitX=0.706;exitY=-0.007;exitDx=0;exitDy=0;entryX=0;entryY=0.5;entryDx=0;entryDy=0;exitPerimeter=0;" parent="1" source="ABU70FEKO0Nm89xOWMDc-9" target="FIp25z3p22-8h9jB1WQo-16" edge="1">
          <mxGeometry width="50" height="50" relative="1" as="geometry">
            <mxPoint x="480" y="310" as="sourcePoint" />
            <mxPoint x="740" y="260" as="targetPoint" />
          </mxGeometry>
        </mxCell>
        <mxCell id="FIp25z3p22-8h9jB1WQo-41" value="1" style="text;html=1;align=center;verticalAlign=middle;resizable=0;points=[];autosize=1;strokeColor=none;fillColor=none;" parent="1" vertex="1">
          <mxGeometry x="475" y="288" width="30" height="30" as="geometry" />
        </mxCell>
        <mxCell id="FIp25z3p22-8h9jB1WQo-42" value="1..*" style="text;html=1;align=center;verticalAlign=middle;resizable=0;points=[];autosize=1;strokeColor=none;fillColor=none;" parent="1" vertex="1">
          <mxGeometry x="540" y="150" width="40" height="30" as="geometry" />
        </mxCell>
        <mxCell id="FIp25z3p22-8h9jB1WQo-43" value="" style="endArrow=none;html=1;rounded=0;entryX=0;entryY=0.25;entryDx=0;entryDy=0;exitX=1;exitY=0.5;exitDx=0;exitDy=0;" parent="1" source="FIp25z3p22-8h9jB1WQo-34" target="ABU70FEKO0Nm89xOWMDc-9" edge="1">
          <mxGeometry width="50" height="50" relative="1" as="geometry">
            <mxPoint x="690" y="310" as="sourcePoint" />
            <mxPoint x="360" y="349" as="targetPoint" />
          </mxGeometry>
        </mxCell>
        <mxCell id="FIp25z3p22-8h9jB1WQo-44" value="1" style="text;html=1;align=center;verticalAlign=middle;resizable=0;points=[];autosize=1;strokeColor=none;fillColor=none;" parent="1" vertex="1">
          <mxGeometry x="306" y="328" width="30" height="30" as="geometry" />
        </mxCell>
        <mxCell id="FIp25z3p22-8h9jB1WQo-45" value="1..*" style="text;html=1;align=center;verticalAlign=middle;resizable=0;points=[];autosize=1;strokeColor=none;fillColor=none;" parent="1" vertex="1">
          <mxGeometry x="100" y="208" width="40" height="30" as="geometry" />
        </mxCell>
        <mxCell id="FIp25z3p22-8h9jB1WQo-46" value="" style="endArrow=none;html=1;rounded=0;exitX=1.007;exitY=0.206;exitDx=0;exitDy=0;entryX=0;entryY=0.5;entryDx=0;entryDy=0;exitPerimeter=0;" parent="1" source="ABU70FEKO0Nm89xOWMDc-9" target="FIp25z3p22-8h9jB1WQo-26" edge="1">
          <mxGeometry width="50" height="50" relative="1" as="geometry">
            <mxPoint x="520" y="349" as="sourcePoint" />
            <mxPoint x="740" y="260" as="targetPoint" />
          </mxGeometry>
        </mxCell>
        <mxCell id="FIp25z3p22-8h9jB1WQo-48" value="1" style="text;html=1;align=center;verticalAlign=middle;resizable=0;points=[];autosize=1;strokeColor=none;fillColor=none;" parent="1" vertex="1">
          <mxGeometry x="525" y="328" width="30" height="30" as="geometry" />
        </mxCell>
        <mxCell id="FIp25z3p22-8h9jB1WQo-49" value="1..*" style="text;html=1;align=center;verticalAlign=middle;resizable=0;points=[];autosize=1;strokeColor=none;fillColor=none;" parent="1" vertex="1">
          <mxGeometry x="710" y="358" width="40" height="30" as="geometry" />
        </mxCell>
        <mxCell id="FIp25z3p22-8h9jB1WQo-50" value="" style="endArrow=none;html=1;rounded=0;exitX=0.534;exitY=1.075;exitDx=0;exitDy=0;exitPerimeter=0;" parent="1" target="FIp25z3p22-8h9jB1WQo-29" edge="1" source="ABU70FEKO0Nm89xOWMDc-12">
          <mxGeometry width="50" height="50" relative="1" as="geometry">
            <mxPoint x="440" y="480" as="sourcePoint" />
            <mxPoint x="740" y="260" as="targetPoint" />
          </mxGeometry>
        </mxCell>
        <mxCell id="FIp25z3p22-8h9jB1WQo-51" value="1" style="text;html=1;align=center;verticalAlign=middle;resizable=0;points=[];autosize=1;strokeColor=none;fillColor=none;" parent="1" vertex="1">
          <mxGeometry x="440" y="499" width="30" height="30" as="geometry" />
        </mxCell>
        <mxCell id="FIp25z3p22-8h9jB1WQo-52" value="1" style="text;html=1;align=center;verticalAlign=middle;resizable=0;points=[];autosize=1;strokeColor=none;fillColor=none;" parent="1" vertex="1">
          <mxGeometry x="450" y="560" width="30" height="30" as="geometry" />
        </mxCell>
        <mxCell id="FIp25z3p22-8h9jB1WQo-53" value="" style="endArrow=none;html=1;rounded=0;entryX=0.005;entryY=0.675;entryDx=0;entryDy=0;entryPerimeter=0;" parent="1" source="FIp25z3p22-8h9jB1WQo-5" target="ABU70FEKO0Nm89xOWMDc-10" edge="1">
          <mxGeometry width="50" height="50" relative="1" as="geometry">
            <mxPoint x="690" y="580" as="sourcePoint" />
            <mxPoint x="360" y="392" as="targetPoint" />
          </mxGeometry>
        </mxCell>
        <mxCell id="FIp25z3p22-8h9jB1WQo-54" value="1" style="text;html=1;align=center;verticalAlign=middle;resizable=0;points=[];autosize=1;strokeColor=none;fillColor=none;" parent="1" vertex="1">
          <mxGeometry x="306" y="388" width="30" height="30" as="geometry" />
        </mxCell>
        <mxCell id="FIp25z3p22-8h9jB1WQo-55" value="1..*" style="text;html=1;align=center;verticalAlign=middle;resizable=0;points=[];autosize=1;strokeColor=none;fillColor=none;" parent="1" vertex="1">
          <mxGeometry x="140" y="488" width="40" height="30" as="geometry" />
        </mxCell>
        <mxCell id="ABU70FEKO0Nm89xOWMDc-9" value="&amp;lt;&amp;lt;Control&amp;gt;&amp;gt;&lt;div&gt;Project&lt;/div&gt;" style="swimlane;fontStyle=1;align=center;verticalAlign=top;childLayout=stackLayout;horizontal=1;startSize=40;horizontalStack=0;resizeParent=1;resizeParentMax=0;resizeLast=0;collapsible=1;marginBottom=0;whiteSpace=wrap;html=1;" parent="1" vertex="1">
          <mxGeometry x="336" y="319" width="190" height="180" as="geometry" />
        </mxCell>
        <mxCell id="ABU70FEKO0Nm89xOWMDc-10" value="&lt;div&gt;+ id: int&lt;br&gt;&lt;/div&gt;+ name: string&lt;div&gt;+ customer: string&lt;/div&gt;&lt;div&gt;+&amp;nbsp;employees: string&lt;/div&gt;&lt;div&gt;+ status: string&amp;nbsp;&lt;/div&gt;" style="text;strokeColor=none;fillColor=none;align=left;verticalAlign=top;spacingLeft=4;spacingRight=4;overflow=hidden;rotatable=0;points=[[0,0.5],[1,0.5]];portConstraint=eastwest;whiteSpace=wrap;html=1;" parent="ABU70FEKO0Nm89xOWMDc-9" vertex="1">
          <mxGeometry y="40" width="190" height="90" as="geometry" />
        </mxCell>
        <mxCell id="ABU70FEKO0Nm89xOWMDc-11" value="" style="line;strokeWidth=1;fillColor=none;align=left;verticalAlign=middle;spacingTop=-1;spacingLeft=3;spacingRight=3;rotatable=0;labelPosition=right;points=[];portConstraint=eastwest;strokeColor=inherit;" parent="ABU70FEKO0Nm89xOWMDc-9" vertex="1">
          <mxGeometry y="130" width="190" height="8" as="geometry" />
        </mxCell>
        <mxCell id="ABU70FEKO0Nm89xOWMDc-12" value="&lt;div&gt;+ loadData(dir: string): void&lt;br&gt;&lt;/div&gt;+ Result: void" style="text;strokeColor=none;fillColor=none;align=left;verticalAlign=top;spacingLeft=4;spacingRight=4;overflow=hidden;rotatable=0;points=[[0,0.5],[1,0.5]];portConstraint=eastwest;whiteSpace=wrap;html=1;" parent="ABU70FEKO0Nm89xOWMDc-9" vertex="1">
          <mxGeometry y="138" width="190" height="42" as="geometry" />
        </mxCell>
        <mxCell id="GvFY-k1SoWStj0efK6Aw-1" value="&amp;lt;&amp;lt;Entity&amp;gt;&amp;gt;&lt;div&gt;Customer&lt;/div&gt;" style="swimlane;fontStyle=1;align=center;verticalAlign=top;childLayout=stackLayout;horizontal=1;startSize=40;horizontalStack=0;resizeParent=1;resizeParentMax=0;resizeLast=0;collapsible=1;marginBottom=0;whiteSpace=wrap;html=1;" parent="1" vertex="1">
          <mxGeometry x="730" y="620" width="190" height="210" as="geometry" />
        </mxCell>
        <mxCell id="GvFY-k1SoWStj0efK6Aw-2" value="&lt;div&gt;+ id: int&lt;br&gt;&lt;/div&gt;+ name: string&lt;div&gt;+ INN: int&amp;nbsp;&lt;br&gt;+ tasks: string&lt;/div&gt;&lt;div&gt;+ data: string&lt;/div&gt;" style="text;strokeColor=none;fillColor=none;align=left;verticalAlign=top;spacingLeft=4;spacingRight=4;overflow=hidden;rotatable=0;points=[[0,0.5],[1,0.5]];portConstraint=eastwest;whiteSpace=wrap;html=1;" parent="GvFY-k1SoWStj0efK6Aw-1" vertex="1">
          <mxGeometry y="40" width="190" height="90" as="geometry" />
        </mxCell>
        <mxCell id="GvFY-k1SoWStj0efK6Aw-3" value="" style="line;strokeWidth=1;fillColor=none;align=left;verticalAlign=middle;spacingTop=-1;spacingLeft=3;spacingRight=3;rotatable=0;labelPosition=right;points=[];portConstraint=eastwest;strokeColor=inherit;" parent="GvFY-k1SoWStj0efK6Aw-1" vertex="1">
          <mxGeometry y="130" width="190" height="8" as="geometry" />
        </mxCell>
        <mxCell id="GvFY-k1SoWStj0efK6Aw-4" value="&lt;span style=&quot;background-color: initial;&quot;&gt;+ pushTasks(): void&lt;/span&gt;" style="text;strokeColor=none;fillColor=none;align=left;verticalAlign=top;spacingLeft=4;spacingRight=4;overflow=hidden;rotatable=0;points=[[0,0.5],[1,0.5]];portConstraint=eastwest;whiteSpace=wrap;html=1;" parent="GvFY-k1SoWStj0efK6Aw-1" vertex="1">
          <mxGeometry y="138" width="190" height="72" as="geometry" />
        </mxCell>
        <mxCell id="GvFY-k1SoWStj0efK6Aw-5" value="" style="endArrow=none;html=1;rounded=0;entryX=1;entryY=0.5;entryDx=0;entryDy=0;exitX=0.25;exitY=0;exitDx=0;exitDy=0;" parent="1" source="GvFY-k1SoWStj0efK6Aw-1" target="ABU70FEKO0Nm89xOWMDc-12" edge="1">
          <mxGeometry width="50" height="50" relative="1" as="geometry">
            <mxPoint x="780" y="590" as="sourcePoint" />
            <mxPoint x="830" y="540" as="targetPoint" />
          </mxGeometry>
        </mxCell>
        <mxCell id="GvFY-k1SoWStj0efK6Aw-6" value="1" style="text;html=1;align=center;verticalAlign=middle;resizable=0;points=[];autosize=1;strokeColor=none;fillColor=none;" parent="1" vertex="1">
          <mxGeometry x="535" y="438" width="30" height="30" as="geometry" />
        </mxCell>
        <mxCell id="GvFY-k1SoWStj0efK6Aw-7" value="1" style="text;html=1;align=center;verticalAlign=middle;resizable=0;points=[];autosize=1;strokeColor=none;fillColor=none;" parent="1" vertex="1">
          <mxGeometry x="765" y="588" width="30" height="30" as="geometry" />
        </mxCell>
        <mxCell id="GvFY-k1SoWStj0efK6Aw-8" value="&amp;lt;&amp;lt;Entity&amp;gt;&amp;gt;&lt;div&gt;Employee&amp;nbsp;&lt;/div&gt;" style="swimlane;fontStyle=1;align=center;verticalAlign=top;childLayout=stackLayout;horizontal=1;startSize=40;horizontalStack=0;resizeParent=1;resizeParentMax=0;resizeLast=0;collapsible=1;marginBottom=0;whiteSpace=wrap;html=1;" parent="1" vertex="1">
          <mxGeometry x="70" y="770" width="190" height="170" as="geometry" />
        </mxCell>
        <mxCell id="GvFY-k1SoWStj0efK6Aw-9" value="&lt;div&gt;+ id: int&lt;br&gt;&lt;/div&gt;+ name: string&lt;div&gt;+ INN: int&amp;nbsp;&lt;br&gt;+ tasks: string&lt;/div&gt;&lt;div&gt;+ logs: string&lt;/div&gt;" style="text;strokeColor=none;fillColor=none;align=left;verticalAlign=top;spacingLeft=4;spacingRight=4;overflow=hidden;rotatable=0;points=[[0,0.5],[1,0.5]];portConstraint=eastwest;whiteSpace=wrap;html=1;" parent="GvFY-k1SoWStj0efK6Aw-8" vertex="1">
          <mxGeometry y="40" width="190" height="90" as="geometry" />
        </mxCell>
        <mxCell id="GvFY-k1SoWStj0efK6Aw-10" value="" style="line;strokeWidth=1;fillColor=none;align=left;verticalAlign=middle;spacingTop=-1;spacingLeft=3;spacingRight=3;rotatable=0;labelPosition=right;points=[];portConstraint=eastwest;strokeColor=inherit;" parent="GvFY-k1SoWStj0efK6Aw-8" vertex="1">
          <mxGeometry y="130" width="190" height="8" as="geometry" />
        </mxCell>
        <mxCell id="GvFY-k1SoWStj0efK6Aw-11" value="+ initProject(): void" style="text;strokeColor=none;fillColor=none;align=left;verticalAlign=top;spacingLeft=4;spacingRight=4;overflow=hidden;rotatable=0;points=[[0,0.5],[1,0.5]];portConstraint=eastwest;whiteSpace=wrap;html=1;" parent="GvFY-k1SoWStj0efK6Aw-8" vertex="1">
          <mxGeometry y="138" width="190" height="32" as="geometry" />
        </mxCell>
        <mxCell id="05FvbxgUmiykEOxAclT5-1" value="" style="endArrow=none;html=1;rounded=0;entryX=0;entryY=0.5;entryDx=0;entryDy=0;exitX=0.5;exitY=0;exitDx=0;exitDy=0;" edge="1" parent="1" source="GvFY-k1SoWStj0efK6Aw-8" target="ABU70FEKO0Nm89xOWMDc-12">
          <mxGeometry width="50" height="50" relative="1" as="geometry">
            <mxPoint x="788" y="630" as="sourcePoint" />
            <mxPoint x="536" y="488" as="targetPoint" />
          </mxGeometry>
        </mxCell>
        <mxCell id="05FvbxgUmiykEOxAclT5-2" value="1..*" style="text;html=1;align=center;verticalAlign=middle;resizable=0;points=[];autosize=1;strokeColor=none;fillColor=none;" vertex="1" parent="1">
          <mxGeometry x="175" y="740" width="40" height="30" as="geometry" />
        </mxCell>
        <mxCell id="05FvbxgUmiykEOxAclT5-3" value="1..*" style="text;html=1;align=center;verticalAlign=middle;resizable=0;points=[];autosize=1;strokeColor=none;fillColor=none;" vertex="1" parent="1">
          <mxGeometry x="320" y="499" width="40" height="30" as="geometry" />
        </mxCell>
      </root>
    </mxGraphModel>
  </diagram>
</mxfile>
